<svg xmlns="http://www.w3.org/2000/svg" xmlns:xlink="http://www.w3.org/1999/xlink" id="Capa_1" x="0" y="0" enable-background="new 0 0 57 57" version="1.1" viewBox="0 0 57 57" xml:space="preserve"><path fill="none" stroke="#556080" stroke-linecap="round" stroke-miterlimit="10" stroke-width="2" d="M43.5,28v6	c0,8.271-6.729,15-15,15s-15-6.729-15-15v-6"/><path fill="#C7CAC7" d="M28.5,44L28.5,44c-5.5,0-10-4.5-10-10V10c0-5.5,4.5-10,10-10h0c5.5,0,10,4.5,10,10v24	C38.5,39.5,34,44,28.5,44z"/><line x1="28.5" x2="28.5" y1="49" y2="56" fill="none" stroke="#556080" stroke-linecap="round" stroke-miterlimit="10" stroke-width="2"/><polyline fill="none" stroke="#556080" stroke-linecap="round" stroke-miterlimit="10" stroke-width="2" points="34.5 56 28.5 56 22.5 56"/><path fill="#AFB6BB" d="M38.5,34V10c0-5.5-4.5-10-10-10v44C34,44,38.5,39.5,38.5,34z"/></svg>